# xmcd
#
# Track frame offsets: 
#        150
#        18582
#        35082
#        55083
#        83005
#        97383
#        111626
#        127894
#        142750
#        161017
#        174556
#        189263
#
# Disc length: 2706 seconds
#
# Revision: 2
# Processed by: cddbd v1.5.2PL0 Copyright (c) Steve Scherf et al.
# Submitted via: ExactAudioCopyFreeDBPlugin 1.0
#
DISCID=a00a900c
DTITLE=Sue Foley - New Used Car
DYEAR=2006
DGENRE=Blues
TTITLE0=New Used Car
TTITLE1=Make It Real
TTITLE2=When I Come Back To Ya
TTITLE3=Absolution
TTITLE4=Sugar
TTITLE5=Do It Again
TTITLE6=Mother
TTITLE7=Long Tomorrow
TTITLE8=Little Things
TTITLE9=Found My Love
TTITLE10=Deep Freeze
TTITLE11=Change Your Mind
EXTD=
EXTT0=
EXTT1=
EXTT2=
EXTT3=
EXTT4=
EXTT5=
EXTT6=
EXTT7=
EXTT8=
EXTT9=
EXTT10=
EXTT11=
PLAYORDER=
